<mxfile host="app.diagrams.net" agent="Mozilla/5.0 (Windows NT 10.0; Win64; x64) AppleWebKit/537.36 (KHTML, like Gecko) Chrome/138.0.0.0 Safari/537.36" version="28.0.7">
  <diagram name="페이지-1" id="BPQBmvYTwRvrMR4We3LO">
    <mxGraphModel dx="1426" dy="785" grid="1" gridSize="10" guides="1" tooltips="1" connect="1" arrows="1" fold="1" page="1" pageScale="1" pageWidth="827" pageHeight="1169" math="0" shadow="0">
      <root>
        <mxCell id="AMUUuPVASqIBxiBbWBHA-0" />
        <mxCell id="AMUUuPVASqIBxiBbWBHA-1" parent="AMUUuPVASqIBxiBbWBHA-0" />
        <mxCell id="kwZrDWtESmtT-K4q3V3t-2" value="글" style="rounded=0;whiteSpace=wrap;html=1;fontStyle=0" vertex="1" parent="AMUUuPVASqIBxiBbWBHA-1">
          <mxGeometry x="290" y="170" width="120" height="60" as="geometry" />
        </mxCell>
        <mxCell id="kwZrDWtESmtT-K4q3V3t-23" value="회원&lt;span style=&quot;color: rgba(0, 0, 0, 0); font-family: monospace; font-size: 0px; text-align: start; text-wrap-mode: nowrap;&quot;&gt;%3CmxGraphModel%3E%3Croot%3E%3CmxCell%20id%3D%220%22%2F%3E%3CmxCell%20id%3D%221%22%20parent%3D%220%22%2F%3E%3CmxCell%20id%3D%222%22%20value%3D%22%EA%B8%80%20%EB%B2%88%ED%98%B8%22%20style%3D%22ellipse%3BwhiteSpace%3Dwrap%3Bhtml%3D1%3Baspect%3Dfixed%3B%22%20vertex%3D%221%22%20parent%3D%221%22%3E%3CmxGeometry%20x%3D%22110%22%20y%3D%22170%22%20width%3D%2270%22%20height%3D%2270%22%20as%3D%22geometry%22%2F%3E%3C%2FmxCell%3E%3C%2Froot%3E%3C%2FmxGraphModel%3E&lt;/span&gt;" style="rounded=0;whiteSpace=wrap;html=1;" vertex="1" parent="AMUUuPVASqIBxiBbWBHA-1">
          <mxGeometry x="130" y="490" width="120" height="60" as="geometry" />
        </mxCell>
        <mxCell id="kwZrDWtESmtT-K4q3V3t-30" value="글 번호" style="ellipse;whiteSpace=wrap;html=1;aspect=fixed;" vertex="1" parent="AMUUuPVASqIBxiBbWBHA-1">
          <mxGeometry x="110" y="80" width="70" height="70" as="geometry" />
        </mxCell>
        <mxCell id="kwZrDWtESmtT-K4q3V3t-31" value="글 제목" style="ellipse;whiteSpace=wrap;html=1;aspect=fixed;" vertex="1" parent="AMUUuPVASqIBxiBbWBHA-1">
          <mxGeometry x="210" y="70" width="70" height="70" as="geometry" />
        </mxCell>
        <mxCell id="kwZrDWtESmtT-K4q3V3t-32" value="글 내용" style="ellipse;whiteSpace=wrap;html=1;aspect=fixed;" vertex="1" parent="AMUUuPVASqIBxiBbWBHA-1">
          <mxGeometry x="320" y="70" width="70" height="70" as="geometry" />
        </mxCell>
        <mxCell id="kwZrDWtESmtT-K4q3V3t-33" value="작성일" style="ellipse;whiteSpace=wrap;html=1;aspect=fixed;" vertex="1" parent="AMUUuPVASqIBxiBbWBHA-1">
          <mxGeometry x="414" y="70" width="70" height="70" as="geometry" />
        </mxCell>
        <mxCell id="kwZrDWtESmtT-K4q3V3t-34" value="수정일" style="ellipse;whiteSpace=wrap;html=1;aspect=fixed;" vertex="1" parent="AMUUuPVASqIBxiBbWBHA-1">
          <mxGeometry x="510" y="70" width="70" height="70" as="geometry" />
        </mxCell>
        <mxCell id="kwZrDWtESmtT-K4q3V3t-35" value="댓글" style="rounded=0;whiteSpace=wrap;html=1;" vertex="1" parent="AMUUuPVASqIBxiBbWBHA-1">
          <mxGeometry x="470" y="480" width="120" height="60" as="geometry" />
        </mxCell>
        <mxCell id="kwZrDWtESmtT-K4q3V3t-40" value="회원코드" style="ellipse;whiteSpace=wrap;html=1;aspect=fixed;" vertex="1" parent="AMUUuPVASqIBxiBbWBHA-1">
          <mxGeometry x="60" y="610" width="70" height="70" as="geometry" />
        </mxCell>
        <mxCell id="kwZrDWtESmtT-K4q3V3t-41" value="이름" style="ellipse;whiteSpace=wrap;html=1;aspect=fixed;" vertex="1" parent="AMUUuPVASqIBxiBbWBHA-1">
          <mxGeometry x="140" y="610" width="70" height="70" as="geometry" />
        </mxCell>
        <mxCell id="kwZrDWtESmtT-K4q3V3t-42" value="댓글내용" style="ellipse;whiteSpace=wrap;html=1;aspect=fixed;" vertex="1" parent="AMUUuPVASqIBxiBbWBHA-1">
          <mxGeometry x="460" y="610" width="70" height="70" as="geometry" />
        </mxCell>
        <mxCell id="kwZrDWtESmtT-K4q3V3t-43" value="수정일" style="ellipse;whiteSpace=wrap;html=1;aspect=fixed;" vertex="1" parent="AMUUuPVASqIBxiBbWBHA-1">
          <mxGeometry x="610" y="610" width="70" height="70" as="geometry" />
        </mxCell>
        <mxCell id="kwZrDWtESmtT-K4q3V3t-44" value="생성일" style="ellipse;whiteSpace=wrap;html=1;aspect=fixed;" vertex="1" parent="AMUUuPVASqIBxiBbWBHA-1">
          <mxGeometry x="540" y="610" width="70" height="70" as="geometry" />
        </mxCell>
        <mxCell id="kwZrDWtESmtT-K4q3V3t-45" value="소개" style="ellipse;whiteSpace=wrap;html=1;aspect=fixed;" vertex="1" parent="AMUUuPVASqIBxiBbWBHA-1">
          <mxGeometry x="220" y="610" width="70" height="70" as="geometry" />
        </mxCell>
        <mxCell id="kwZrDWtESmtT-K4q3V3t-46" value="댓글코드" style="ellipse;whiteSpace=wrap;html=1;aspect=fixed;" vertex="1" parent="AMUUuPVASqIBxiBbWBHA-1">
          <mxGeometry x="379" y="600" width="70" height="70" as="geometry" />
        </mxCell>
        <mxCell id="kwZrDWtESmtT-K4q3V3t-55" value="쓰다" style="rhombus;whiteSpace=wrap;html=1;" vertex="1" parent="AMUUuPVASqIBxiBbWBHA-1">
          <mxGeometry x="315" y="505" width="80" height="80" as="geometry" />
        </mxCell>
        <mxCell id="kwZrDWtESmtT-K4q3V3t-56" value="쓰다" style="rhombus;whiteSpace=wrap;html=1;" vertex="1" parent="AMUUuPVASqIBxiBbWBHA-1">
          <mxGeometry x="150" y="330" width="80" height="80" as="geometry" />
        </mxCell>
        <mxCell id="kwZrDWtESmtT-K4q3V3t-57" value="소속" style="rhombus;whiteSpace=wrap;html=1;" vertex="1" parent="AMUUuPVASqIBxiBbWBHA-1">
          <mxGeometry x="460" y="318" width="80" height="80" as="geometry" />
        </mxCell>
        <mxCell id="kwZrDWtESmtT-K4q3V3t-66" value="" style="ellipse;whiteSpace=wrap;html=1;aspect=fixed;" vertex="1" parent="AMUUuPVASqIBxiBbWBHA-1">
          <mxGeometry x="595" y="140" width="70" height="70" as="geometry" />
        </mxCell>
        <mxCell id="kwZrDWtESmtT-K4q3V3t-67" value="" style="rounded=0;whiteSpace=wrap;html=1;" vertex="1" parent="AMUUuPVASqIBxiBbWBHA-1">
          <mxGeometry x="570" y="258" width="120" height="60" as="geometry" />
        </mxCell>
        <mxCell id="kwZrDWtESmtT-K4q3V3t-68" value="" style="rhombus;whiteSpace=wrap;html=1;" vertex="1" parent="AMUUuPVASqIBxiBbWBHA-1">
          <mxGeometry x="585" y="358" width="80" height="80" as="geometry" />
        </mxCell>
        <mxCell id="kwZrDWtESmtT-K4q3V3t-71" value="" style="endArrow=none;html=1;rounded=0;" edge="1" parent="AMUUuPVASqIBxiBbWBHA-1" source="kwZrDWtESmtT-K4q3V3t-56" target="kwZrDWtESmtT-K4q3V3t-2">
          <mxGeometry width="50" height="50" relative="1" as="geometry">
            <mxPoint x="390" y="360" as="sourcePoint" />
            <mxPoint x="440" y="310" as="targetPoint" />
            <Array as="points">
              <mxPoint x="210" y="350" />
            </Array>
          </mxGeometry>
        </mxCell>
        <mxCell id="kwZrDWtESmtT-K4q3V3t-72" value="" style="endArrow=none;html=1;rounded=0;entryX=0.657;entryY=1.014;entryDx=0;entryDy=0;entryPerimeter=0;" edge="1" parent="AMUUuPVASqIBxiBbWBHA-1" source="kwZrDWtESmtT-K4q3V3t-2" target="kwZrDWtESmtT-K4q3V3t-32">
          <mxGeometry width="50" height="50" relative="1" as="geometry">
            <mxPoint x="410" y="210" as="sourcePoint" />
            <mxPoint x="460" y="160" as="targetPoint" />
          </mxGeometry>
        </mxCell>
        <mxCell id="kwZrDWtESmtT-K4q3V3t-73" value="" style="endArrow=none;html=1;rounded=0;exitX=0.167;exitY=0;exitDx=0;exitDy=0;exitPerimeter=0;entryX=0.571;entryY=1;entryDx=0;entryDy=0;entryPerimeter=0;" edge="1" parent="AMUUuPVASqIBxiBbWBHA-1" source="kwZrDWtESmtT-K4q3V3t-2" target="kwZrDWtESmtT-K4q3V3t-30">
          <mxGeometry width="50" height="50" relative="1" as="geometry">
            <mxPoint x="240" y="180" as="sourcePoint" />
            <mxPoint x="290" y="130" as="targetPoint" />
            <Array as="points">
              <mxPoint x="160" y="150" />
            </Array>
          </mxGeometry>
        </mxCell>
        <mxCell id="kwZrDWtESmtT-K4q3V3t-74" value="" style="endArrow=none;html=1;rounded=0;exitX=0.5;exitY=0;exitDx=0;exitDy=0;" edge="1" parent="AMUUuPVASqIBxiBbWBHA-1" source="kwZrDWtESmtT-K4q3V3t-2" target="kwZrDWtESmtT-K4q3V3t-31">
          <mxGeometry width="50" height="50" relative="1" as="geometry">
            <mxPoint x="330" y="190" as="sourcePoint" />
            <mxPoint x="380" y="140" as="targetPoint" />
          </mxGeometry>
        </mxCell>
        <mxCell id="kwZrDWtESmtT-K4q3V3t-75" value="" style="endArrow=none;html=1;rounded=0;" edge="1" parent="AMUUuPVASqIBxiBbWBHA-1" source="kwZrDWtESmtT-K4q3V3t-2" target="kwZrDWtESmtT-K4q3V3t-33">
          <mxGeometry width="50" height="50" relative="1" as="geometry">
            <mxPoint x="490" y="190" as="sourcePoint" />
            <mxPoint x="540" y="140" as="targetPoint" />
          </mxGeometry>
        </mxCell>
        <mxCell id="kwZrDWtESmtT-K4q3V3t-76" value="" style="endArrow=none;html=1;rounded=0;entryX=0.125;entryY=0.4;entryDx=0;entryDy=0;entryPerimeter=0;exitX=1;exitY=0.75;exitDx=0;exitDy=0;" edge="1" parent="AMUUuPVASqIBxiBbWBHA-1" source="kwZrDWtESmtT-K4q3V3t-2" target="kwZrDWtESmtT-K4q3V3t-57">
          <mxGeometry width="50" height="50" relative="1" as="geometry">
            <mxPoint x="490" y="410" as="sourcePoint" />
            <mxPoint x="540" y="360" as="targetPoint" />
          </mxGeometry>
        </mxCell>
        <mxCell id="kwZrDWtESmtT-K4q3V3t-77" value="" style="endArrow=none;html=1;rounded=0;" edge="1" parent="AMUUuPVASqIBxiBbWBHA-1" source="kwZrDWtESmtT-K4q3V3t-55" target="kwZrDWtESmtT-K4q3V3t-23">
          <mxGeometry width="50" height="50" relative="1" as="geometry">
            <mxPoint x="280" y="290" as="sourcePoint" />
            <mxPoint x="330" y="240" as="targetPoint" />
          </mxGeometry>
        </mxCell>
        <mxCell id="kwZrDWtESmtT-K4q3V3t-78" value="" style="endArrow=none;html=1;rounded=0;" edge="1" parent="AMUUuPVASqIBxiBbWBHA-1" source="kwZrDWtESmtT-K4q3V3t-23" target="kwZrDWtESmtT-K4q3V3t-56">
          <mxGeometry width="50" height="50" relative="1" as="geometry">
            <mxPoint x="70" y="460" as="sourcePoint" />
            <mxPoint x="120" y="410" as="targetPoint" />
          </mxGeometry>
        </mxCell>
        <mxCell id="kwZrDWtESmtT-K4q3V3t-79" value="" style="endArrow=none;html=1;rounded=0;entryX=0.729;entryY=0.943;entryDx=0;entryDy=0;entryPerimeter=0;" edge="1" parent="AMUUuPVASqIBxiBbWBHA-1" source="kwZrDWtESmtT-K4q3V3t-2" target="kwZrDWtESmtT-K4q3V3t-34">
          <mxGeometry width="50" height="50" relative="1" as="geometry">
            <mxPoint x="570" y="170" as="sourcePoint" />
            <mxPoint x="620" y="120" as="targetPoint" />
          </mxGeometry>
        </mxCell>
        <mxCell id="kwZrDWtESmtT-K4q3V3t-80" value="" style="endArrow=none;html=1;rounded=0;entryX=0;entryY=0.25;entryDx=0;entryDy=0;" edge="1" parent="AMUUuPVASqIBxiBbWBHA-1" source="kwZrDWtESmtT-K4q3V3t-55" target="kwZrDWtESmtT-K4q3V3t-35">
          <mxGeometry width="50" height="50" relative="1" as="geometry">
            <mxPoint x="330" y="450" as="sourcePoint" />
            <mxPoint x="530" y="500" as="targetPoint" />
          </mxGeometry>
        </mxCell>
        <mxCell id="kwZrDWtESmtT-K4q3V3t-81" value="" style="endArrow=none;html=1;rounded=0;entryX=0.675;entryY=1.083;entryDx=0;entryDy=0;entryPerimeter=0;" edge="1" parent="AMUUuPVASqIBxiBbWBHA-1" source="kwZrDWtESmtT-K4q3V3t-41" target="kwZrDWtESmtT-K4q3V3t-23">
          <mxGeometry width="50" height="50" relative="1" as="geometry">
            <mxPoint x="420" y="450" as="sourcePoint" />
            <mxPoint x="470" y="400" as="targetPoint" />
          </mxGeometry>
        </mxCell>
        <mxCell id="kwZrDWtESmtT-K4q3V3t-82" value="" style="endArrow=none;html=1;rounded=0;entryX=0.85;entryY=0.933;entryDx=0;entryDy=0;entryPerimeter=0;" edge="1" parent="AMUUuPVASqIBxiBbWBHA-1" source="kwZrDWtESmtT-K4q3V3t-45" target="kwZrDWtESmtT-K4q3V3t-23">
          <mxGeometry width="50" height="50" relative="1" as="geometry">
            <mxPoint x="440" y="460" as="sourcePoint" />
            <mxPoint x="490" y="410" as="targetPoint" />
          </mxGeometry>
        </mxCell>
        <mxCell id="kwZrDWtESmtT-K4q3V3t-83" value="" style="endArrow=none;html=1;rounded=0;" edge="1" parent="AMUUuPVASqIBxiBbWBHA-1" source="kwZrDWtESmtT-K4q3V3t-44" target="kwZrDWtESmtT-K4q3V3t-35">
          <mxGeometry width="50" height="50" relative="1" as="geometry">
            <mxPoint x="460" y="470" as="sourcePoint" />
            <mxPoint x="560" y="550" as="targetPoint" />
          </mxGeometry>
        </mxCell>
        <mxCell id="kwZrDWtESmtT-K4q3V3t-84" value="" style="endArrow=none;html=1;rounded=0;exitX=0.671;exitY=0.071;exitDx=0;exitDy=0;exitPerimeter=0;" edge="1" parent="AMUUuPVASqIBxiBbWBHA-1" source="kwZrDWtESmtT-K4q3V3t-42" target="kwZrDWtESmtT-K4q3V3t-35">
          <mxGeometry width="50" height="50" relative="1" as="geometry">
            <mxPoint x="460" y="470" as="sourcePoint" />
            <mxPoint x="510" y="420" as="targetPoint" />
          </mxGeometry>
        </mxCell>
        <mxCell id="kwZrDWtESmtT-K4q3V3t-85" value="" style="endArrow=none;html=1;rounded=0;" edge="1" parent="AMUUuPVASqIBxiBbWBHA-1" source="kwZrDWtESmtT-K4q3V3t-46" target="kwZrDWtESmtT-K4q3V3t-35">
          <mxGeometry width="50" height="50" relative="1" as="geometry">
            <mxPoint x="460" y="470" as="sourcePoint" />
            <mxPoint x="510" y="420" as="targetPoint" />
          </mxGeometry>
        </mxCell>
        <mxCell id="kwZrDWtESmtT-K4q3V3t-86" value="" style="endArrow=none;html=1;rounded=0;entryX=0.5;entryY=1;entryDx=0;entryDy=0;" edge="1" parent="AMUUuPVASqIBxiBbWBHA-1" source="kwZrDWtESmtT-K4q3V3t-40" target="kwZrDWtESmtT-K4q3V3t-23">
          <mxGeometry width="50" height="50" relative="1" as="geometry">
            <mxPoint x="440" y="450" as="sourcePoint" />
            <mxPoint x="490" y="400" as="targetPoint" />
          </mxGeometry>
        </mxCell>
        <mxCell id="kwZrDWtESmtT-K4q3V3t-87" value="" style="endArrow=none;html=1;rounded=0;exitX=1;exitY=0.25;exitDx=0;exitDy=0;" edge="1" parent="AMUUuPVASqIBxiBbWBHA-1" source="kwZrDWtESmtT-K4q3V3t-35" target="kwZrDWtESmtT-K4q3V3t-43">
          <mxGeometry width="50" height="50" relative="1" as="geometry">
            <mxPoint x="430" y="460" as="sourcePoint" />
            <mxPoint x="480" y="410" as="targetPoint" />
          </mxGeometry>
        </mxCell>
        <mxCell id="kwZrDWtESmtT-K4q3V3t-88" value="" style="endArrow=none;html=1;rounded=0;exitX=0.308;exitY=-0.033;exitDx=0;exitDy=0;exitPerimeter=0;" edge="1" parent="AMUUuPVASqIBxiBbWBHA-1" source="kwZrDWtESmtT-K4q3V3t-35" target="kwZrDWtESmtT-K4q3V3t-57">
          <mxGeometry width="50" height="50" relative="1" as="geometry">
            <mxPoint x="410" y="450" as="sourcePoint" />
            <mxPoint x="460" y="400" as="targetPoint" />
          </mxGeometry>
        </mxCell>
        <mxCell id="kwZrDWtESmtT-K4q3V3t-89" value="" style="endArrow=classic;html=1;rounded=0;" edge="1" parent="AMUUuPVASqIBxiBbWBHA-1">
          <mxGeometry width="50" height="50" relative="1" as="geometry">
            <mxPoint x="677.5" y="397.5" as="sourcePoint" />
            <mxPoint x="750" y="398" as="targetPoint" />
            <Array as="points">
              <mxPoint x="745" y="397.5" />
            </Array>
          </mxGeometry>
        </mxCell>
        <mxCell id="kwZrDWtESmtT-K4q3V3t-90" value="Relation" style="text;html=1;align=center;verticalAlign=middle;resizable=0;points=[];autosize=1;strokeColor=none;fillColor=none;" vertex="1" parent="AMUUuPVASqIBxiBbWBHA-1">
          <mxGeometry x="757" y="380" width="70" height="30" as="geometry" />
        </mxCell>
        <mxCell id="kwZrDWtESmtT-K4q3V3t-91" value="Entity" style="text;html=1;align=center;verticalAlign=middle;resizable=0;points=[];autosize=1;strokeColor=none;fillColor=none;" vertex="1" parent="AMUUuPVASqIBxiBbWBHA-1">
          <mxGeometry x="775" y="288" width="50" height="30" as="geometry" />
        </mxCell>
        <mxCell id="kwZrDWtESmtT-K4q3V3t-92" value="Attribute" style="text;html=1;align=center;verticalAlign=middle;resizable=0;points=[];autosize=1;strokeColor=none;fillColor=none;" vertex="1" parent="AMUUuPVASqIBxiBbWBHA-1">
          <mxGeometry x="750" y="160" width="70" height="30" as="geometry" />
        </mxCell>
        <mxCell id="kwZrDWtESmtT-K4q3V3t-95" value="" style="endArrow=classic;html=1;rounded=0;" edge="1" parent="AMUUuPVASqIBxiBbWBHA-1">
          <mxGeometry width="50" height="50" relative="1" as="geometry">
            <mxPoint x="702.5" y="300" as="sourcePoint" />
            <mxPoint x="775" y="300.5" as="targetPoint" />
            <Array as="points">
              <mxPoint x="770" y="300" />
            </Array>
          </mxGeometry>
        </mxCell>
        <mxCell id="kwZrDWtESmtT-K4q3V3t-96" value="" style="endArrow=classic;html=1;rounded=0;" edge="1" parent="AMUUuPVASqIBxiBbWBHA-1">
          <mxGeometry width="50" height="50" relative="1" as="geometry">
            <mxPoint x="680" y="174.5" as="sourcePoint" />
            <mxPoint x="752.5" y="175" as="targetPoint" />
            <Array as="points">
              <mxPoint x="747.5" y="174.5" />
            </Array>
          </mxGeometry>
        </mxCell>
      </root>
    </mxGraphModel>
  </diagram>
</mxfile>
